/* XPM */
static char *_2b984448fda45acc9123ab7db1f3ee9Hx5sed8iW19qZSuJ[] = {
/* columns rows colors chars-per-pixel */
"70 105 251 2 ",
"   c #61093C",
".  c #09065B",
"X  c #17145E",
"o  c #2D045E",
"O  c #060666",
"+  c #02016D",
"@  c #06096B",
"#  c #0B0B6C",
"$  c #120368",
"%  c #1A146D",
"&  c #020174",
"*  c #0B0A74",
"=  c #01017C",
"-  c #080478",
";  c #0C0C7C",
":  c #130375",
">  c #16167D",
",  c #26036B",
"<  c #262673",
"1  c #24247B",
"2  c #363579",
"3  c #7E0C4C",
"4  c #481262",
"5  c #BC060B",
"6  c #BB0A0D",
"7  c #B80C13",
"8  c #AC1314",
"9  c #BC151B",
"0  c #AE1C23",
"q  c #BE2229",
"w  c #BD3335",
"e  c #C50406",
"r  c #CC0204",
"t  c #C5050B",
"y  c #CC040B",
"u  c #C30A0D",
"i  c #CC090B",
"p  c #D50103",
"a  c #DC0002",
"s  c #D4020A",
"d  c #DB010B",
"f  c #D30A0D",
"g  c #D9090A",
"h  c #C30B12",
"j  c #C70814",
"k  c #D50714",
"l  c #CD1215",
"z  c #C51418",
"x  c #CC161A",
"c  c #CC191C",
"v  c #D31419",
"b  c #E30001",
"n  c #E90001",
"m  c #E30109",
"M  c #C70827",
"N  c #C81A22",
"B  c #D61C25",
"V  c #C6272A",
"C  c #D52529",
"Z  c #C62A32",
"A  c #D72B34",
"S  c #CA3339",
"D  c #D5353A",
"F  c #E33036",
"G  c #C63A42",
"H  c #D53D43",
"J  c #E43A43",
"K  c #B94246",
"L  c #CA474B",
"P  c #CC454B",
"I  c #D44245",
"U  c #D7464B",
"Y  c #CC4F51",
"T  c #D64A52",
"R  c #CA5257",
"E  c #D75458",
"W  c #E64C50",
"Q  c #E9565A",
"!  c #D75E61",
"~  c #EC5D65",
"^  c #D86869",
"/  c #CE6C70",
"(  c #D86E73",
")  c #D67377",
"_  c #E76668",
"`  c #F16F79",
"'  c #EA7476",
"]  c #010084",
"[  c #090587",
"{  c #0C0C84",
"}  c #00008C",
"|  c #0C0B8C",
" . c #100F86",
".. c #131385",
"X. c #13138B",
"o. c #1C1988",
"O. c #000093",
"+. c #0A0992",
"@. c #00009A",
"#. c #1C1B93",
"$. c #211F8A",
"%. c #211F92",
"&. c #23228D",
"*. c #292989",
"=. c #353489",
"-. c #262596",
";. c #2C2C93",
":. c #302F91",
">. c #333392",
",. c #393899",
"<. c #3B3B9C",
"1. c #0100A1",
"2. c #1C1BA1",
"3. c #2D2BA1",
"4. c #3A39A5",
"5. c #403585",
"6. c #413D98",
"7. c #48478F",
"8. c #414196",
"9. c #494999",
"0. c #58589A",
"q. c #4343A4",
"w. c #4B4BA7",
"e. c #514FAA",
"r. c #4F50A5",
"t. c #5454A2",
"y. c #5A5AA3",
"u. c #5757A9",
"i. c #5B5CA9",
"p. c #4A49B1",
"a. c #5757B7",
"s. c #605FB6",
"d. c #6667AB",
"f. c #7A7BAD",
"g. c #6868B9",
"h. c #6F72B7",
"j. c #7C7DB2",
"k. c #7575B9",
"l. c #6766C4",
"z. c #7676C6",
"x. c #7270CD",
"c. c #A0628B",
"v. c #FA7F81",
"b. c #807CCA",
"n. c #7F80CE",
"m. c #8C8EBA",
"M. c #8888BC",
"N. c #DD8A8B",
"B. c #D68F92",
"V. c #DC8C93",
"C. c #E7888A",
"Z. c #F58589",
"A. c #E68D93",
"S. c #F28C93",
"D. c #E69497",
"F. c #F59699",
"G. c #F19EA2",
"H. c #E8A3A7",
"J. c #ECABAD",
"K. c #F8A7AA",
"L. c #F4B0AE",
"P. c #E8ADB2",
"I. c #F9ABB4",
"U. c #EAB7B7",
"Y. c #F7B7B8",
"T. c #FEBBBD",
"R. c #F3C3BF",
"E. c #8484C4",
"W. c #8788C5",
"Q. c #8A8BC5",
"!. c #8383C9",
"~. c #8B8BCB",
"^. c #8D8DCA",
"/. c #9799C9",
"(. c #9999D9",
"). c #A29FCB",
"_. c #9FA1CC",
"`. c #9EA1D9",
"'. c #A5A6CC",
"]. c #A5A6D7",
"[. c #ABAED2",
"{. c #AFADD7",
"}. c #ACACDC",
"|. c #AEB1D5",
" X c #AEB2DC",
".X c #B3B3D4",
"XX c #B6B7DB",
"oX c #9999E6",
"OX c #ABABE6",
"+X c #ADACEA",
"@X c #BABBE9",
"#X c #B8B8F4",
"$X c #EABCC2",
"%X c #F8BDC3",
"&X c #C3BFE4",
"*X c #BFC1EB",
"=X c #C8C7DD",
"-X c #D0CEDA",
";X c #FDC2C4",
":X c #F9C6C8",
">X c #F2C9CA",
",X c #FDCCCC",
"<X c #F1CFD3",
"1X c #FDCED2",
"2X c #FDD4D3",
"3X c #FDD5D9",
"4X c #F8DAD8",
"5X c #FCDBDB",
"6X c #F9E4DB",
"7X c #FCE4DE",
"8X c #C6C9E4",
"9X c #CBCAE2",
"0X c #C3C5EC",
"qX c #C9CAEB",
"wX c #CFD0EE",
"eX c #D8DAEB",
"rX c #C9C9F6",
"tX c #DBDDF4",
"yX c #D6D6F8",
"uX c #D5D5FE",
"iX c #DBDCFC",
"pX c #E7DCEF",
"aX c #FCDEE3",
"sX c #DBE0EC",
"dX c #DEE2F6",
"fX c #E1E2EC",
"gX c #FDE4E4",
"hX c #FEEAE5",
"jX c #FEE4EA",
"kX c #FEECEC",
"lX c #FEF3EC",
"zX c #FEFBEF",
"xX c #E3E4F4",
"cX c #E6EBF7",
"vX c #ECECF5",
"bX c #E3E5FC",
"nX c #E6E8FB",
"mX c #EAECFB",
"MX c #FEEEF3",
"NX c #F9EEF9",
"BX c #EFF0F7",
"VX c #EEF2FC",
"CX c #F2F3F7",
"ZX c #FEF3F4",
"AX c #F6FCF6",
"SX c #FDFCF5",
"DX c #F3F5FD",
"FX c #FDF5FA",
"GX c #F6FBFE",
"HX c #FCFDFD",
"JX c #FDFEFE",
/* pixels */
"@ O.O.@.} O.O.} O.} O.} O.& HX= O.j.HXSXHXHXHXHXSXHXk.O.@.} t.HXSXGX] O.@., n b b b b S HXj m Y.HXp a kX%Xb r SXR b b b b b a a b b b b b t ",
"# @.} } O.O.} O.} O.O.+.@.+ HX{ O.M.HXGXDXAXGXGXDXDXh.} O.O.r.HXHXHX] @.[ 4 d p b a a G AXi a U.SXn b 7XY.n 5 FXY b b m a b a a m a a m b i ",
"# O.u.HXHXHXGXHXGXHXGX^.} & HX= @.f.HX} O.HXxX} O.O.] GX&.O.t.HXHXSX] : d a jXkXkXZXkXlXHXMXMXHXSXn a b a b r FXP b I kXkXMXkXMXkXMXhXK.b r ",
"# @.y.HXtXiXyXiXiXtXHXz.O.& HX; @.g.iX] O.GXxXO.} O.= HX1 O.q.tXyXiX= $ k y 5X5XSXgX5X7XGXHXHXHXHXr a d a b y SXP b U HX6X3X2X3X3X3XSXG.a i ",
"# O.y.GX= @.O.O.O.} HX~.} & HX] O.@.O.O.O.GXcXO.@.O.] HX< @.O.} O.O.vXHXZX;Xm e HX~ p V HXHXHXHXGXlXZXMXT.a y SXR b U SXu b b b b p FXK.b t ",
"@ O.y.HX= } O.O.O.] HX!.O.+ HX* = @.O.O.O.SXtX@.@.O.] HX1 @.O.} O.O.cXHXSX:Xa p I.H b B I.D.K.J.I.HXGXHX%Xy 7 GXL a U FXu b b b b p SXK.b t ",
"# O.y.HX] O.O.O.@.O.HX^.O.& HXHXGX= O.O.O.GXxX} @.O.] HX&.O.@.} } O.cXHXHX,Xm a b a m a b b b b b gXHXHXSXHXFXHXY b U HXh b b a b p ZXI.b t ",
"# O.u.HX& } O.O.O.] HXj.O.= HXSXHX] O.| { x.l.| | O.= HX2 { } O.+.> CXSXSX:Xa b x a n p f 9 z z N MXHXHXSXHXHXHXK a H SXu b b a b a SXG.b e ",
"* O.y.HX] O.@.O.O.O.HX^.O.& HXHXAX} O.9XGX} @.HXXXO.= HXHXHX* O./.HXHXSXGX,Xa y ZXQ a S zXFXSXFXGXSXSXHXHXGXHXHXE b U HXi a m a b a HXI.b i ",
"# O.y.HX=.<.4.<.<.<.HXk.@.& HX8.<.} O.3.4.O.O.4.-.O.] GX0.<...4.XXHX6.5.H D b y HXU b k I B.HXHXHXSXZXI D H P SXP b U SXP I I I D I HXF.b r ",
"# @.y.HXHXHXGXHXSXHXHX~.O.& HX{ O.O.O.O.} @.O.O.O.O.] SX;.@.r.HXFXHX] : d b a r HX_ n n b ) HXSXHXSXgXb a b r HXY a U GXSXSXFXSXHXHXSXK.b r ",
"# } | ..; X.#...X...X.| } & SX- O.q.z.O.O.n.z.O.O.z.<.X.; z.- X.[.GX} - S.Q m r FXI b v Z.f x R.HX9 v ` Q a r SXK a d c z N N l x x N f b e ",
"# O.@.O.O.O.} O.O.@.@.O.O.] AX[ O.f.GX} O.GXxXO.] HXh.O.; GX* @.'.SX] O.HX,Xa s HX^ n w HXl a U.FXb m ZXY.b y FXR b a a m b n a b a n n m y ",
"=X*X}.0X@X0X@XrX0X@X*XOX0X@XHX] O.j.HXO.} ] } O.] HXeX0X*XHXwXrXmXHX9X0XSXNX;X>XSXU p q AX:X%XkXFXb m NXP.a i HX,X;XI.;XL.%XT.T.T.Y.T.Y.T.;X",
"HXHXHXSXGXHXGXHXHXHXSXHXGXGXHX; O.j.HX} O.} O.O.] GXSXSXAXHXHXHXGXHXGXSXHXHXZXZXZXQ m C ZXZXSXFXSXb a lX:Xa r kXSXlXFXZXHXHXHXHXZXZXlXZXZXZX",
"HXHXHXGX& } ] } ] & SX~.= + HX] O.j.SXmXnXO.O.O.} HXHXHXHXHX* } = } vXGX} o p p p u jXC a p d $XSXaXgXHXSXgX' y a p p p A.HXHXZXt a d s p u ",
"SXHXHXHX& O.@.} O.} DX~.O.= VX] O.j.HXDXVXO.O.O.= VXVXHXSXHX- } O.@.xXNX,   m b b e hXC n a b J.hXkXhXhXjXkXZ.n a b n b A.SXHXlXb p a b m t ",
"HXHXHXGXGXHXGXDXO.O.} = HX4.O.2 HXHXHX} O.O.} HX.X} = SXHXHX@ O.).GX] : y a b a a b a m m ^ SXs b a a b b a y FXT b U FXSXHXHXHXSX2Xb p ZXFX",
"iXuXnXHXuXuXuXrXO.} } } iX4.O.-.uXnXHX} } } ] uXoX} = HXiXuX] } ^.uXO., y a a b a b a b d ) HXp b b b a a b h SXL b U SX2X,X;X,X,XK.d p ,X:X",
"# @.y.HX= O.O.} GXGXHX~.@.+ GX; O.f.SXHXGXHXmX} ] HXHXGX1 } t.HX& O.xXHXHX1Xm t HXE b Z SXSXHXp b b a ZXHXHXGXSXP b U zXu b b a b a b a b y ",
"% [ 4.oX} O.+.[ GXmXoXa.[ * AX..= M.HX`.oXHXxX+.[ HXqX(.#.+.u.HX- +.vXFXHX:Xb s F.F a Z HXHXSXf p a a ZXjXF.F.FXL n P ZX9 s b a g d f m f 9 ",
"GXGX& O.O.} mXHXGX8XO.= HXHXHXSXAXHXHX} } AXHXGXHXHXf.O.; HXGXHXHXHXSXSXSX,Xa b n b n Z HXHXHXHXHXn p kX:Xm e FXR a U HXHXFXr b lXGXHXSXGXSX",
"i.u. .-.O.} CXFXa.p.-.X.a.0.HXi.a.'.HX} @.GXcXa.u.HXi.O.} u.q.a.w.a.DXHXHX2XA v a b a V HXSXHXE Q b d kX>XA c E v a U FX^ W a b Q W W ! HXHX",
"# O.y.GX& O.vXDX} } HXQ.O.= AX* @.f.GX} } GXfXO.] SXh.O.} } O.O.O.@.cXSXSXHXSXH.b a b Z SXHXHXb a a m lXGXSXC.b b b U HX5 b a b n a b p SXHX",
"@ O.| -.4.a.2.2.@.} &.X.a.| &.X.a.[.HXi.a.GXeXO.O.&.{ a.>.a.<.a.w.a.-.#.-.4 A v Q U Q f C N.HXQ ~ W E FX>XC v m d Q j V F Q b m a b Q Q SXHX",
"# @.O.@.[.GX] @.O.O.} ] AX<.O.:.SXHXGXHXHXHXxXO.O.O.] HXHXAXHXHXHXHX] @.O.o p r HXHXHXC b ( HXHXHXSXHXHXY.a b b x SXV b D.HXd n a m FXSXHXHX",
"].oXh.oX] ] O.O.oXx.@.O.] } } *.SX& } 9XHX] } oXl.} } O.= = r.HXHXHX(.(.oXc.a y HXSXHXc a a y U.HXp p p p n a Z.D s a n a r m b Z.` i p p 7 ",
"GXHXSXHX] O.} O.GX8XO.@.} O.O.>.GX= } -XHX} } SXXXO.@.O.} } r.AXHXHXHXHXSX1Xd r GXHXAXC b b a U.FXa b b b b y HXE m a m b a a a ZX3Xa b a t ",
"HXHXHXHX= O.} O.HX0XO.] rX#XrX[ } g.rXGXSXrX#X} O.O.O.O.| uX{ ] '.HX= ] GXZX;X:XHX^ d b b W ;XkXHXb b b a %X;XFX1XR.K.;XY.;XT.;XAXlX;XT.%X%X",
"HXHXHXHX] O.} } HX0X] ] GXAXGX[ O.k.GXSXGXSXxXO.O.} } @.; DX- O.(.GX] ] FXFXFXFXSXE b b p ( ZXFXMXb b p y HXSXHXFXSXFXFXFXZXHXHXZXFXSXFXHXHX",
"SXHXHXHX= O.yXbX} } mX!.O.O.} O.} O.O.} O.O.} O.] mXg.@.O.] } O.O.} O.: a b b t HXQ n Z jXf b a b n a 3XgXSXHXHXL b b a a a 6XMXp b a r HXHX",
"GXHXGXDX= ] mXVX] = HXQ.] } ] O.O.O.O.} = } } ] } GXk.} } } O.O.@.O.O.$ s b y e hXE r A ZXj k b a a b lXHXkXZXHXR r b b a d 2XhXp m a 5 SXHX",
"; @.} O.].GX} O.GXGXHXHXHXHXHX} } O.@.8XHXHXHXHX X} ] GXHXHX- O.O.} } : a d lXF.p r ZXC a ( SXp b b a FX;Xb j HXSXZXB a S.hXi b n a MXFXSXHX",
". ] = } [.SX= = #X0XrX0XrXqXHX= } } = -XHXrX0X0X^.= + HXHXHX& @.} ] } , p d FXS.b p :XN i ) HXm b b a Y.S.y s R.:XFXq a C.HXp a b a Y.%X%X%X",
"SXHXGXHXHXSXHXVXO.O.} O.@.& GX= O.j.GXGXGXO.@.} = GXHXSXHXGX- O.'.GX] : d a MXF.p a n S SXGXSXa b b b b r MXC.b h SXV b A.HXa n b b b b b t ",
"HXHXHXSXSXHXFXCX} O.O.} X.= z.* ..4.z.l.z.O.@.O.} GXHXSXM.k.] O.p.z. .% q z ' U x p b x ' P.SXq x c c b p ' D b h HXN b C.SX0 N c l a m b y ",
"HXHXHXHXHXHXGXDX} O.O.= HXq.O.=.GX] } O.O.@.O.O.} HXHXHX1 O.O.O.@.O.mXHXGX1Xb r SXW a a n ) HXFXSXFXgXa b b n b z SXq b A.SXFXSXSX2Xa b b y ",
"HXSX=.>.;.>.;.3.<.>.>.o.;.+.O.*.HX} O.O.O.4.;.@.O.SXQ.>.- <.&.=.= } vXFXD C b y FXU b g H c A A S D A n b D x m d A i b B D D D D A b b b y ",
"HXGX+ O.O.} } ] GXHXSX~.@.O.} :.HX] } @.O.GXxXO.} HXj.O.; HXSXGX= 1.vXZXa a b y HXQ p Z SXt b b b n n b y SXC.n a b a a b a m a b d a a a u ",
"# = &.g.0.l.] } ] = = = h.7.d.& = <.g.@.@.} ] } } SX0.} @.= & = } @.nXMXp b b r HXJ.( k j a a b n ` ( ^ ( HX) b a ' f b J ) ^ ' _ ~ a a ' ( ",
"O O.y.HXHXHXO.} @.O.@.= HXHXHX} } f.HX} } @.@.O.] HXk.} O.O.O.O.@.] vXkXp b b y ZXFXSXC b n n b a 7XFXFXlXHXV.b h HXq m A.HXFXSXGX3Xb y ZXHX",
"* O.} = [.HX} O.@.O.} O.] ] = &.[.eXHX{.}.}.].].}.HXwX[. .O.<.}.= O.cXFXI.H.L._ p a p V U.D.J.a b p t s u ZXN.b z SXU.K.4XAX9 y ZX1Xa b s 7 ",
"# ] O.} ].GX} O.} O.} @.O.O.} :.GXGXHXHXHXHXSXHXSXHXHXHX;.O.t.HX] } tXZXZXZXHXF.d b a Z SXHXSXa a m b b y FXV.m h SXHXFXSXZXp p lX2Xa a b t ",
"eXtXwXtX= } } } O.} yXwXeX4.O.O.] } O.=XHXSXxXO.] O.} O.| tXnXHX= - M a p p lXMX5X<X2X6XGXSXHXb b :X3X3X4XFXjX5X4XSXq p D.HX4X2XFX2Xa b b j ",
"SXAXHXHX] O.O.} @.} GXFXGX4.O.@.O.} O.8XHXHXxXO.O.O.O.} { AXGXGX= - s b b p ZXHXSXZXkXZXkXkXkXd b 3XlXHXAXhXMXMXkXHXV b C.lXMXFXkX:Xm b b j ",
"HXGX+ @.O.} nXDX} & HX~.O.+ HX= @.O.O.9XSXSXSXHXGXGXHXGX*.O.} } O.@.xX7Xp p HXHXHXQ b a a b m L.lXm a MXY.a b b h SXq b b b b b a b b b b t ",
"vXxX= O.O.} wXtXO.] SX~.} & xX- @.O.O.XXfXHXSXdXxXSXHXHX=.} O.O.} } wXpXr d ,X4XHX^ b m b m p U.SXp a 2XK.a m m x ,Xc b a m a a b b b b b 5 ",
"# @.y.GX] O.} ] GXHXHXSXGX<.O.O.O.j.HX} O.GXxX@.} HXHXHXAXHXHXHXHXGX] O.FX,Xa r HXHXSXHXHXSXSXGXSXSX7Xb r lXGXSXL b a b A.HXSXhXp a FXHXHXFX",
"O O.y.HX+ } O.= GXvXQ.Q./.#.} ] @.q.Q.} ] FXsX@.] HX=XQ.Q.m.XXHXHXSX& ] HX:Xp p A.B.SXH.A.N.C.V.V.FXaXa b C.B.SXP b a s T N.A.C.a a C.N.V.B.",
"# @.y.GXGXSXHXHXHX0X} O.O.O.@.O.O.O.+.8XAXHXxX} } GXk.} O.O.t.HXHXAXHXHXGX1Xa a b h HXC a a a n b kXhXa b a t SXR b U FX7 b a p n b a a b j ",
". O.y.GX7.<.<.6.FX@X} O. .& | } O.+...9XGX6.4.} } HXj.| = X.d.HX7.<.8.8.GX2Xx z x h I k a b x x B kXaXb b v f L x c x H l c v c B l m b b y ",
"# O.i.SX] } ] } FX9XO.& GXHXHX; O.j.HXHXGXO.@.O.] HXHXHXHXHXSXHX& O.} } SXSXSXGXHXQ b b n ( HXHXHXAXgXb k SXC.b z SXZ a A.HXSXHXGX2Xa a b y ",
"* } y.SX= O.q.4.O ] O.} + . SX& @.} = + = q.;.} O.= O HX< + 9.GX7.<.4.=.9 5 h 7 HXS.H d a ( HX7 7 6 u a b t p b b 6 p n i 7 6 6 5 h J B b y ",
"# } y.GX& O.cXGX} O.O.O.O.& HX= } } O.O.@.HXdXO.O.} & GX< ] u.HXHXSXHXMXa m b i HXHXAXA b ( SXa b m a b n b n n b b b n b a b b a p ZXL.b t ",
"^.Q. XHXQ.~.FXGXW.M.^.k.^.M.HX= O.O.O.g.Q.} } } } ~.W.HX].!..XHXHXHXHXSXC._ b p AX! r m b ( SXC.C.Z.' b a b p C.Z.C.) Z.s a ` S.Z.S.HX3XZ.D.",
"SXHXHXHXGXSXFXHXGXGXHXHXGXHXHX; O.} O.9XHX} O.} } GXGXHXHXGXGXHXHXHXHXHXHXR.a r FXQ a a a ( HXFXFXSXkXa a b y FXGXCXHXSXu n 5XHXHXSXZXHXGXSX",
"# O.] } } ] ] ] ] ] } ] } + SX8X0X] O.=XHXqX0X8X^.] ] } ] ] t.HX& ] O.$ y a a b r e ;XL.%XaXHXt p lXFX%XS.b y HXR s R SXu b r d SX5Xy s p 7 ",
"# } ] } } } } } } O.O.O.O.& HXHXHX= O.-XHXHXHXHXXX} } } } } t.HX& ] O., d a a a a 6 AXHXZXGXHXr a gXZXGX:Xa y ZXY a T SXh a p p MX2Xa n a 5 ",
"# } t.DXBXVXDXCXVXCXGX!.O.= HXHXHXVXDXHXHX@.= GXGXVXCXDXmXVX& ] /.DX] : d p gXhXkXZXHXC a ( HXkXhXp a SXY.b y DXZXhXZXGXj m ,XkXHX2Xa y jXkX",
"# O.y.HXmXBXBXBXvXCXHXE.O.& HXBXnXcXmXFXHXO.} HXSXHXHXHXHXHX* @.'.HX] : M h ZXFX6XgXkXB a ( AXhX6Xb a 2XI.a d 6XgXgXgX6Xf p 5XSXhX%Xb p SXHX",
"# @.0.HX] O.} O.O.] HX~.O.+ HX= O.O.} 9XGX@.} HXSXHXHXHXHXHX- O.'.GX= O.[ : HXG.b b a b a ( SXp b b b a b n b a a a b b b b gXlXp a b p HXHX",
"# O.u.HX= O.O.O.O.} SXk.O.& HX= O.O.O.=XHX} O.GXHXSXHXSXHXHX- } '.HX] O.O.] GXF.u p b a t T H.s e y s b b b b e r m p y p b 7XMXp b y 8 HXHX",
"# O.y.HX] O.@.O.@.} GX~.O.+ HX[ O.O.O.8XGXO.O.HXGXFXHXHXHXSX; @.'.GX] O.O.} HXGXHX_ b S HXy a U.SXSX6Xa b b r SXY n I AXu b 6XFXr p ZXSXHXSX",
"@ O.y.GX= O.@.O.O.} HXk.O.& HX- O.] & -XGX} O.r.t.t.t.t.0.GX. + >.r.} = 3 3 HX$XE v b V SX0 7 D E E T h 8 6 7 T V 5 N E 5 7 6XlXp p FX,X! R ",
". O.i.GX& O.O.O.O.} HXW.O.& HX[ O.j.HXHXGX} O.O.@.O.O.@.{ SXHXHX& O.O.$ p s FXF.b b b Z HXHXGXp b d a kXSXGXC.b h SXZ b C.SXHXMXp a SXK.b p ",
"+ O.i.SX$ # @ # # O HXk.O.+ HX< * O ; 9XHX# * O.} * @ # X HX# ] } } ; , b b u k b b b V HX9 7 h 8 b a ZX>Xh r m 6 FX9 b C.SXSXSX0 0 HXD.b r ",
"# O.y.SXHXHXHXHXHXHXSXW.O.= SXHXAX] O.9XHXHXxXO.] HXHXHXGXHX# @.O.O.mXMXd b b m b p b S HXi b U.HXb b kXT.a b b 9 GXV a D.SXHXHXSXAXHXI.a e ",
"# O.O.] ] = ] = ] = } } O.O HXHXHX= } 8XHXHXtX1.@.& = ] = ] @.} <.d.& & ) E b b n p / B.HXs a k y n a ZX4X/ / / ) CXB./ j t 5XMX6 i t p n t ",
"O } @.O.O.O.O.O.O.O.O.O.O.= SXSXHX} O.9XSXHXxX} O.O.O.@.O.} O.} '.GX} ] GX,Xb d b 6 HXSXHXk a b b b d MXHXSXGXHXHXHXHXSXh a 5XZXp b b b b t ",
".X.X'..X'..X[.|..X[.|.|..X.XHXHXSX.X XmXHXHXGX.X'.|.[..X/.[.'..XxXSX.X|.SXlXP.H.J.U.HXSXAXU.P.J.P.P.J.AXHXHXGXHXHXHXHXHXU.J.FXHXP.J.P.P.P.U.",
"SXHXGXSXHXHXHXHXHXHXHXHXSXSXHXHXHXHXSXHXSXHXHXSXSXHXHXHXHXHXSXHXHXHXHXHXAXHXHXHXGXHXGXGXGXSXHXSXHXSXHXHXHXHXHXHXHXHXSXHXHXHXHXHXSXHXHXHXHXGX",
"HXHXHXHXHXHXHXHXHXHXHXSXHXHXHXHXHXHXHXSXHXHXHXHXHXHXHXHXHXHXHXHXHXHXHXHXHXHXHXHXAXHXHXHXHXHXHXHXHXHXHXHXHXHXHXHXHXHXHXHXHXHXHXHXHXHXHXHXHXHX",
"HXHXHXHXHXHXHXHXHXHXHXHXHXHXHXHXHXHXHXHXHXHXHXHXHXHXHXHXHXHXHXHXHXHXHXSXHXHXHXHXHXHXHXHXHXHXHXHXHXHXHXHXHXHXHXHXHXHXHXHXHXHXHXHXHXHXHXHXHXHX",
"HXHXHXHXHXSXHXHXHXHXHXHXSXHXHXHXSXHXSXHXHXHXHXHXHXHXHXHXHXHXHXHXSXHXHXHXHXHXHXHXHXHXHXHXHXHXHXHXHXHXHXHXHXHXHXHXHXHXHXHXHXHXHXHXHXHXHXHXHXHX",
"HXHXHXHXHXHX'.^.^.DXSXHXHX~.^.'.HX^.~.~.^.^.~.~.^.~.~.~.~.^.^.Q.HXHXHXHXHXHXHXHXHXHXHXHXHXHXHXHXHXHXHXHXHXHXHXHXHXHXHXHXHXHXHXHXHXHXHXHXHXHX",
"HXHXHXHXHXHX[ } } HXHXHX/.@.} }.SX} } O.O.O.O.O.O.O.O.O.O.O.O.] HXHXHXHXHXHXHXHXHXHXHXHXHXHXHXHXHXHXHXHXHXHXHXHXHXHXHXHXHXHXHXHXHXHXHXHXHXHX",
"HXHXHXHXHXHXO.} #.SXHXHX&.] } GXHX[ O.} @.O.O.@.O.O.} O.} O.O.} HXHXHXHXHXHXHXHXHXHXHXSXHXHXHXHXHXHXHXHXHXHXHXHXHXHXHXHXHXHXHXSXHXHXHXHXHXHX",
"HXHXSXSXHX@XO.O.j.HXHXSX} O.[ HXHX] @.O.O.} } } O.@.@.O.O.} O.= HXHXSXHXHXHXHXHXHXHXHXHXHXHXHXHXHXHXHXHXHXSXHXHXSXHXHXHXHXHXHXHXHXHXSXSXHXHX",
"SXHXGXHXHX*.O.} GXGXHXnX@.} -.HXHXd.l.g.l.l.+.O.} O.] l.g.l.l.g.HXHXHXHXHXHXHXHXHXHXSXHXHXHXHXFXHXHXHXHXHXHXHXHXHXHXHXHXHXSXHXHXHXHXHXGXHXHX",
"GX= ] ] ] O.O.O.= ] ] } O.} O.& iXHXHXHXSXHX$.O.O.O.= HXSXHXGXHXHXSXxX- = } ] = ;.mXSXHXHXSXd.t.t.p.GXHXHXHX].p.p.u.M.HXHXHXz.] } ] = g.GXAX",
"HX[ O.} O.O.} @.O.O.@.@.O.O.O.} uXSXHXHXHXHX&.O.O.O.] HXHXHXHXSXHX*.O.O.@.O.O.O.@.} z.HXHXHX&.O.O.O.DXHXSXHXW.O.@.O.y.HXHX{ O.O.O.} O.@.] xX",
"HX0.i.i.&.O.] e.i.i.u.O.O.= i.i.nXHXHXHXSXHX&.O.O.O.= HXHXHXHXHX;.O.O.O.} O.O.} O.O.} E.HXHX&.O.O.O.GXHXHXHXM.O.O.O.i.HXi.O.} O.} O.} O.O./.",
"HXHXSXHX&.} O.HXHXHX[.} @.!.HXHXHXSXHXHXHXHX&.O.@.O.= HXHXHXHXXX} O.O.@.} >.&.} O.} @.] GXGX&.O.O.O.DXHXHXHXM.O.O.O.t.HX..O.O.} DXVX-.} 0XHX",
"SXGXHXGX] O.] HXHXHXp.@.} VXSXSXSXHXHXHXHXHX-.O.O.O.& HXHXHXHXX.O.} O.- HXHXHXmX} } @.@.d.HX;.O.O.O.GXHXHXHXM.O.O.O.y.HX; O.O.} (.HXHXxXHXHX",
"HXHXHXqXO.@.y.GXHXGX] } ] GXHXHXHXHXHXHXHXHX#.O.O.O.= HXHXHXHX} O.O.O.GXHXHXHXHX^.} O.} o.HX*.@.O.O.GXHXHXHXQ.O.} @.y.HX9.O.1.O.} [ >.GXHXHX",
"HX] @.@.O.O.} @.O.} O.O.O.O.} } uXHXHXHXHXHX#.O.O.O.= HXHXHXHX] O.O.O.GXHXHXHXHXHXO.O.O.= HX*.O.O.} GXHXHXHXM.O.O.O.t.HXHX= @.O.O.O.O.O.k.HX",
"GX] O.O.O.@.} O.O.O.O.@.} O.@.} uXSXHXHXHXHX&.O.O.O.= HXHXHXHX} @.O.@.HXHXHXHXHXiXO.O.@.& HX&.O.} O.FXHXHXSXQ.} } O.i.HXSXHX9.O.O.O.@.O.} wX",
"GXt.w.} O.+.w.e.t.} O.} 9.e.t.t.nXHXHXHXHXHX&.O.O.O.= HXHXHXHX= O.O.O.z.HXSXGXSX&.} @.} <.HX<.} O.@.(.HXSXHX:.O.O.] E.HXHXHXHXHXrXo.} O.O.+ ",
"HXSX}.} O.].HXHXHX} O.= SXHXHXHXHXHXHXHXHXHX&.O.@.O.= HXHXHXHXd.O.O.@.} k.VXbX<.O.O.O.@.0XHX^.} O.O.] XXGX/.O.O.O.O.mXHXHXg.= HXHXGX} O.} + ",
"SXHX>.O.O.mXHXSXeXO.} g.HXSXHXSXHXHXSXHXHXHX#.O.O.O.= HXHXHXGXGX] O.O.O.@.O.O.O.O.O.@...HXSXHX} O.O.O.} @.O.O.O.} [ HXHX9.O.} } 8.-.} O.@.9.",
"HXHX= O.& HXHXHXl.O.} wXHXSXHXHXHXHXHXHXHXHX&.O.@.O.= HXHXHXSXHXwX& O.O.O.@.O.} O.O.& GXHXHXHX^.O.O.O.O.O.O.O.O.} tXFXGX= O.O.O.@.O.O.O.] GX",
"SXnXO.@.8.HXSXHX& O.] HXAXHXHXHXHXHXHXHXHXHXo.O.@.O.& GXSXHXHXHXHXGX= O.} O.@.O.} o.HXSXHXHXHXHX#X] O.O.O.O.} ] CXHXHXHXHXo.] O.@.} O.= xXHX",
"HXHXHXHXAXHXHXHXHXGXGXSXHXHXHXHXHXHXHXHXFXSXHXHXHXHXHXHXHXHXHXHXHXSXHXHX+Xu.g.#XHXSXHXHXHXSXHXHXHXHXbXk.w.z.GXHXHXSXHXSXHXHXDX+Xa.g.iXHXSXHX",
"HXHXHXHXHXHXHXSXSXSXHXHXHXSXSXHXHXHXHXHXHXHXHXHXHXHXHXCXmXHXSXHXHXHXHXHXGXHXHXSXHXHXHXHXHXHXHXHXHXHXGXHXHXSXHXHXHXGXfXFXHXSXHXHXHXHXHXDXDXSX",
"HXSXHXeX].'.].AXHXHXHXHXHXHXHXHXHXHXHXHXHXHXSXSXHXHXmX} ] xXHXHXHXbXg.:.>./.GXGXHXHXHXSXHXHXHXHXHXHXHXSXHXHXHXHXHXz.@.= HXHXHXHXHXSXDXO.] GX",
"HXHXHX>.O.1.} nXSXHXHXHXSXHXHXHXHXHXHXHXSX/./.XXSXHX0XO.} @XHXHX0.O.@.O.@.O.} @XSXHXHXHXHXSXHXHXHXHXHXHXHXHXHXHXHX>.O.} GXHXHXHXHXHXGX@.} GX",
"HXHXHX} O.O.@.o.HXSXHXHXAXHXSXHXHXHXSXHXHX+ O.t.HXHXHX(.^.HXHXg.O.} } > + O.O.> HXHXHXHXHXHXHXSXHXSXHXHXHXHXHXSXHXGXh.8XHXHXHXHXHXHXGX} } HX",
"HXHX[.} O.4.@.] HXHXHXHX< 1 *XX.+.>.HXGX< ] @.| 1 Q.SX1 < GXGXO.O.= CXSXHXxXg.HXSXHXrXX.+.{ E.HXGX< 1 0XHXSX9.1 2 0X< < GXHXHX1 @.| ^.O.] GX",
"HXHX- O.- GX] O.OXSXHXSX] } 1.O.} @.=.GX} ] @.} O.z.HX] ] HX].} O.tXHXHXHXHXHXHXHXk.O.O.O.] O.* GX= O.<.HXGXO.O.#X}.O.] HXHX} O.@.} O.O.] HX",
"SXDXO.O.^.HX] O.#.AXHXHX} O.[ GXs.@.} HXOX= @.4.+XwXGX} } HXQ.1.O.DXSXHXHXSXHXSXHX} O.>.GXb.} O.vX@XO.} SX0XO.O.SXXXO.] HX=.} ] yXDXo.O.} HX",
"HX^.O.O.& ] O.O.} GXHXHXO.@.uXHXbX} O.HXGX= @.i.HXHXHXO.} HX'.O.} dXHXHXSXHXHXSXrX} } GXSXHX| } y.GX} O.}.>.O.= HXXXO.] HXX.@.<.HXGXDXO.} GX",
"HX] } O.@.O.} @.O.k.HXSXO.O.uXHXnXO.O.HXSX& O.t.SXHXHX] } HXmX} O.-.HXHXHXVX XHXyXO.} HXHXHX; O.i.HX> O.-.] O.8XHX@XO.} HXX.} 4.HXHXDX} ] GX",
"VXO.} Q.dXnXdX& ] ; HXSX} O.iXHXnXO.O.HXSX* O.X.0X=XGX} } HXHX<.} O.[ y.u.O.O.9.GX] O.>.bXk.O.O.xXSX8X} O.O.} GXHXXX@.] HX7.O.O.}.yX&.O.} GX",
"8.} O.GXHXHXFXoXO.@.mXSX@.O.uXHXmX} } HXSXwXO.O.O.z.GX} } GXHXHXo.O.@.} O.} } k.SXW.O.O.O.} @.*.HXHXGX} @.@.o.SXHXXXO.= HXGX] O.O.O.O.@.O.HX",
"8.8.i.HXHXHXHXGX<.q.m.GX8.q.iXHXnX8.6.GXHXHXwX& & }.GX8.8.HXSXHXHXwX& } } #.VXHXHXHXyX& } & ].HXHXHXHXy.q.<.qXGXSX9X8.8.HXHXGXo.= ] ].,.q.HX"
};
